<svg xmlns="http://www.w3.org/2000/svg" version="1.1" xmlns:xlink="http://www.w3.org/1999/xlink" width="692.6780356421218" height="200" viewBox="-10.20097541809082 7.480000019073486 165.56097412109375 40.69049835205078"><path d="M5.04 38.40L4.96 38.56L5.88 38.36L5.80 37.68L5.52 37.76Q5.24 38.08 5.04 38.40L5.04 38.40ZM8.96 38.28L8.96 38.28Q6.96 38.96 4.92 39.44L4.92 39.44L4.48 39.56Q3 43.20 3.08 45.56L3.08 45.56Q3.12 47.88 5.20 46.56L5.20 46.56Q7.20 42.88 8.96 38.28ZM-0.76 38.76L-0.96 38.80Q0.84 39.44 4.60 38.64L4.60 38.64L5.44 37.76Q2.24 38.48-0.76 38.76L-0.76 38.76ZM26.68 27.44L25.56 28.56Q17.40 35.20 9.76 38L9.76 38Q8.04 42.40 6.04 45.96L6.04 45.96L4.92 47.08Q1.84 49.56 1.92 46.40L1.92 46.40Q2 43.92 3.44 40.48L3.44 40.48Q3.64 40 3.80 39.72L3.80 39.72Q-2.24 41.04-3.48 38.84L-3.48 38.84Q-6.16 38.72-7.80 37.74Q-9.44 36.76-9.92 35.20Q-10.40 33.64-10.06 31.64Q-9.72 29.64-8.64 27.48Q-7.56 25.32-5.88 23.20L-5.88 23.20Q-5.24 22.36-4.44 21.52L-4.44 21.52L-2.64 19.60L-1.04 18L0.08 16.88L4.16 14Q5.60 13.04 7.84 11.72Q10.08 10.40 12.18 9.62Q14.28 8.84 16.52 8.44L16.52 8.44L17.48 7.48L17.56 8.28Q18.40 8.16 19.24 8.08L19.24 8.08Q22.44 7.84 25.26 8.70Q28.08 9.56 29.96 11.66Q31.84 13.76 31.88 16.72L31.88 16.72L33.68 16.52L32.56 17.64L31.88 17.72Q31.76 18.76 31.48 19.84L31.48 19.84Q31.16 21 30.56 22.14Q29.96 23.28 29.60 23.78Q29.24 24.28 28.08 25.70Q26.92 27.12 26.68 27.44L26.68 27.44ZM30.68 16.88L30.68 16.88Q30.32 14.24 28.42 12.38Q26.52 10.52 23.82 9.74Q21.12 8.96 18.12 9.20L18.12 9.20Q17.84 9.24 17.60 9.24L17.60 9.24Q17.60 10.96 17.20 13.10Q16.80 15.24 16.48 16.38Q16.16 17.52 15.36 20.12L15.36 20.12Q16.40 19.68 17.44 19.32L17.44 19.32L19.20 18.72Q19.96 18.48 21.08 18.24L21.08 18.24L22.72 17.88Q23.28 17.76 24.60 17.58Q25.92 17.40 26.36 17.36Q26.80 17.32 28.48 17.12Q30.16 16.92 30.68 16.88ZM30.76 17.88L30.76 17.88L27.68 18.24Q25.68 18.44 24.84 18.54Q24 18.64 22.52 18.86Q21.04 19.08 20.06 19.32Q19.08 19.56 17.78 19.96Q16.48 20.36 15.12 20.92L15.12 20.92L14.84 21.88Q11.72 32.56 10.64 35.56L10.64 35.56Q19.68 32.84 25.04 28.32L25.04 28.32L23.92 29.44Q18.84 33.76 10.32 36.44L10.32 36.44L10.08 37.16Q17.88 34.48 26.04 27.96L26.04 27.96L26.80 27.04L27.60 26.08Q27.80 25.84 28.26 25.22Q28.72 24.60 28.92 24.22Q29.12 23.84 29.44 23.28Q29.76 22.72 29.98 22.16Q30.20 21.60 30.36 20.96L30.36 20.96Q30.80 19.36 30.76 17.88ZM3.24 27.52L3.88 26.88L6.40 25.12L9.40 23.12Q10.76 22.24 12.04 21.64L12.04 21.64L14.44 20.52Q15.16 18.16 15.54 16.76Q15.92 15.36 16.22 13.26Q16.52 11.16 16.44 9.40L16.44 9.40Q14 9.76 11.76 10.50Q9.52 11.24 7.20 12.58Q4.88 13.92 3.36 14.96L3.36 14.96L-0.88 17.88Q-3.84 20.92-4.76 22.08L-4.76 22.08Q-6.76 24.64-7.88 27.12L-7.88 27.12Q-9 29.68-9.12 31.86Q-9.24 34.04-7.88 35.60Q-6.52 37.16-3.76 37.56L-3.76 37.56Q-3.76 37.32-3.72 37L-3.72 37Q-3.44 34.84-2.16 33.08L-2.16 33.08Q-1.32 31.92 0.28 30.40L0.28 30.40Q-0.48 31.20-1.04 31.96L-1.04 31.96Q-2.32 33.72-2.60 35.88L-2.60 35.88Q-2.76 37-2.32 37.72L-2.32 37.72Q-1.08 37.76 0.36 37.64L0.36 37.64Q3.36 37.36 6.56 36.64L6.56 36.64L6.88 36.32L6.92 36.56Q8.40 36.24 9.84 35.80L9.84 35.80Q11.04 32.36 13.72 23L13.72 23L14.24 21.28Q12.68 21.92 10.92 22.76L10.92 22.76Q9.60 23.40 8.24 24.26Q6.88 25.12 5.28 26.28Q3.68 27.44 2.76 28L2.76 28L3.24 27.52L2 28.72Q0.84 29.80 0.28 30.40L0.28 30.40Q2.64 28.16 2.76 28L2.76 28L3.24 27.52ZM9.28 37.44L9.52 36.68Q8.32 37.08 7.04 37.40L7.04 37.40L6.16 38.28Q7.72 37.92 9.28 37.44L9.28 37.44ZM34.76 34.96L34.76 34.96Q32.36 37.80 33.20 38.84L33.20 38.84Q33.76 37.96 36.56 34.40L36.56 34.40Q37.44 33.32 37.20 33.32L37.20 33.32Q36.88 33.36 34.76 34.96ZM33.00 40.52L33.00 40.52L32.00 41.52Q32.04 41 32.40 40.28L32.40 40.28Q30.72 39.24 34.36 35.28L34.36 35.28L35.48 34.16Q38.40 31.92 38.40 32.24L38.40 32.24Q38.40 32.40 36.32 34.96L36.32 34.96Q34.24 37.64 33.52 39.12L33.52 39.12Q34.20 39.52 35.60 39.56Q37 39.60 39.22 39.44Q41.44 39.28 42.52 39.28L42.52 39.28L41.40 40.40Q40.32 40.40 38.30 40.54Q36.28 40.68 35.32 40.70Q34.36 40.72 33.00 40.52ZM41.56 32.12L40.44 33.24Q40.24 33.20 40.06 33.16Q39.88 33.12 39.78 33.10Q39.68 33.08 39.64 33.06Q39.60 33.04 39.52 33.04L39.52 33.04L39.44 33.04Q39.40 33.04 39.24 33.08Q39.08 33.12 38.96 33.16L38.96 33.16L40.08 32.04Q41.92 30.84 44.08 29.88L44.08 29.88Q44.64 25.16 44.68 22.32L44.68 22.32Q44.24 18.44 44.24 15.80L44.24 15.80L45.36 14.68Q45.88 17.68 45.80 21.16L45.80 21.16L45.92 22.12L45.76 22.28Q45.68 24.84 45.12 29.40L45.12 29.40Q46.64 28.76 48.84 28L48.84 28L47.72 29.12Q46.16 29.68 45.04 30.12L45.04 30.12Q44.56 34.08 44.40 36.12L44.40 36.12Q44.40 36.40 44.32 37.18Q44.24 37.96 44.22 38.36Q44.20 38.76 44.18 39.46Q44.16 40.16 44.28 40.60Q44.40 41.04 44.58 41.58Q44.76 42.12 45.12 42.52Q45.48 42.92 45.96 43.24L45.96 43.24L44.84 44.36Q44.32 44.04 43.98 43.64Q43.64 43.24 43.44 42.70Q43.24 42.16 43.14 41.72Q43.04 41.28 43.04 40.58Q43.04 39.88 43.06 39.48Q43.08 39.08 43.16 38.30Q43.24 37.52 43.28 37.24L43.28 37.24Q43.44 35.24 44 30.52L44 30.52Q42.36 31.24 40.96 31.96L40.96 31.96Q41.24 32.04 41.56 32.12L41.56 32.12ZM49.92 34.96L49.92 34.96Q47.52 37.80 48.36 38.84L48.36 38.84Q48.92 37.96 51.72 34.40L51.72 34.40Q52.60 33.32 52.36 33.32L52.36 33.32Q52.04 33.36 49.92 34.96ZM48.16 40.52L48.16 40.52L47.16 41.52Q47.20 41 47.56 40.28L47.56 40.28Q45.88 39.24 49.52 35.28L49.52 35.28L50.64 34.16Q53.56 31.92 53.56 32.24L53.56 32.24Q53.56 32.40 51.48 34.96L51.48 34.96Q49.40 37.64 48.68 39.12L48.68 39.12Q49.36 39.52 50.76 39.56Q52.16 39.60 54.38 39.44Q56.60 39.28 57.68 39.28L57.68 39.28L56.56 40.40Q55.48 40.40 53.46 40.54Q51.44 40.68 50.48 40.70Q49.52 40.72 48.16 40.52ZM74.20 38.40L74.12 38.56L75.04 38.36L74.96 37.68L74.68 37.76Q74.40 38.08 74.20 38.40L74.20 38.40ZM78.12 38.28L78.12 38.28Q76.12 38.96 74.08 39.44L74.08 39.44L73.64 39.56Q72.16 43.20 72.24 45.56L72.24 45.56Q72.28 47.88 74.36 46.56L74.36 46.56Q76.36 42.88 78.12 38.28ZM68.40 38.76L68.20 38.80Q70 39.44 73.76 38.64L73.76 38.64L74.60 37.76Q71.40 38.48 68.40 38.76L68.40 38.76ZM95.84 27.44L94.72 28.56Q86.56 35.20 78.92 38L78.92 38Q77.20 42.40 75.20 45.96L75.20 45.96L74.08 47.08Q71 49.56 71.08 46.40L71.08 46.40Q71.16 43.92 72.60 40.48L72.60 40.48Q72.80 40 72.96 39.72L72.96 39.72Q66.92 41.04 65.68 38.84L65.68 38.84Q63 38.72 61.36 37.74Q59.72 36.76 59.24 35.20Q58.76 33.64 59.10 31.64Q59.44 29.64 60.52 27.48Q61.60 25.32 63.28 23.20L63.28 23.20Q63.92 22.36 64.72 21.52L64.72 21.52L66.52 19.60L68.12 18L69.24 16.88L73.32 14Q74.76 13.04 77 11.72Q79.24 10.40 81.34 9.62Q83.44 8.84 85.68 8.44L85.68 8.44L86.64 7.48L86.72 8.28Q87.56 8.16 88.40 8.08L88.40 8.08Q91.60 7.84 94.42 8.70Q97.24 9.56 99.12 11.66Q101 13.76 101.04 16.72L101.04 16.72L102.84 16.52L101.72 17.64L101.04 17.72Q100.92 18.76 100.64 19.84L100.64 19.84Q100.32 21 99.72 22.14Q99.12 23.28 98.76 23.78Q98.40 24.28 97.24 25.70Q96.08 27.12 95.84 27.44L95.84 27.44ZM99.84 16.88L99.84 16.88Q99.48 14.24 97.58 12.38Q95.68 10.52 92.98 9.74Q90.28 8.96 87.28 9.20L87.28 9.20Q87 9.24 86.76 9.24L86.76 9.24Q86.76 10.96 86.36 13.10Q85.96 15.24 85.64 16.38Q85.32 17.52 84.52 20.12L84.52 20.12Q85.56 19.68 86.60 19.32L86.60 19.32L88.36 18.72Q89.12 18.48 90.24 18.24L90.24 18.24L91.88 17.88Q92.44 17.76 93.76 17.58Q95.08 17.40 95.52 17.36Q95.96 17.32 97.64 17.12Q99.32 16.92 99.84 16.88ZM99.92 17.88L99.92 17.88L96.84 18.24Q94.84 18.44 94 18.54Q93.16 18.64 91.68 18.86Q90.20 19.08 89.22 19.32Q88.24 19.56 86.94 19.96Q85.64 20.36 84.28 20.92L84.28 20.92L84 21.88Q80.88 32.56 79.80 35.56L79.80 35.56Q88.84 32.84 94.20 28.32L94.20 28.32L93.08 29.44Q88 33.76 79.48 36.44L79.48 36.44L79.24 37.16Q87.04 34.48 95.20 27.96L95.20 27.96L95.96 27.04L96.76 26.08Q96.96 25.84 97.42 25.22Q97.88 24.60 98.08 24.22Q98.28 23.84 98.60 23.28Q98.92 22.72 99.14 22.16Q99.36 21.60 99.52 20.96L99.52 20.96Q99.96 19.36 99.92 17.88ZM72.40 27.52L73.04 26.88L75.56 25.12L78.56 23.12Q79.92 22.24 81.20 21.64L81.20 21.64L83.60 20.52Q84.32 18.16 84.70 16.76Q85.08 15.36 85.38 13.26Q85.68 11.16 85.60 9.40L85.60 9.40Q83.16 9.76 80.92 10.50Q78.68 11.24 76.36 12.58Q74.04 13.92 72.52 14.96L72.52 14.96L68.28 17.88Q65.32 20.92 64.40 22.08L64.40 22.08Q62.40 24.64 61.28 27.12L61.28 27.12Q60.16 29.68 60.04 31.86Q59.92 34.04 61.28 35.60Q62.64 37.16 65.40 37.56L65.40 37.56Q65.40 37.32 65.44 37L65.44 37Q65.72 34.84 67 33.08L67 33.08Q67.84 31.92 69.44 30.40L69.44 30.40Q68.68 31.20 68.12 31.96L68.12 31.96Q66.84 33.72 66.56 35.88L66.56 35.88Q66.40 37 66.84 37.72L66.84 37.72Q68.08 37.76 69.52 37.64L69.52 37.64Q72.52 37.36 75.72 36.64L75.72 36.64L76.04 36.32L76.08 36.56Q77.56 36.24 79 35.80L79 35.80Q80.20 32.36 82.88 23L82.88 23L83.40 21.28Q81.84 21.92 80.08 22.76L80.08 22.76Q78.76 23.40 77.40 24.26Q76.04 25.12 74.44 26.28Q72.84 27.44 71.92 28L71.92 28L72.40 27.52L71.16 28.72Q70 29.80 69.44 30.40L69.44 30.40Q71.80 28.16 71.92 28L71.92 28L72.40 27.52ZM78.44 37.44L78.68 36.68Q77.48 37.08 76.20 37.40L76.20 37.40L75.32 38.28Q76.88 37.92 78.44 37.44L78.44 37.44ZM103.92 34.96L103.92 34.96Q101.52 37.80 102.36 38.84L102.36 38.84Q102.92 37.96 105.72 34.40L105.72 34.40Q106.60 33.32 106.36 33.32L106.36 33.32Q106.04 33.36 103.92 34.96ZM102.16 40.52L102.16 40.52L101.16 41.52Q101.20 41 101.56 40.28L101.56 40.28Q99.88 39.24 103.52 35.28L103.52 35.28L104.64 34.16Q107.56 31.92 107.56 32.24L107.56 32.24Q107.56 32.40 105.48 34.96L105.48 34.96Q103.40 37.64 102.68 39.12L102.68 39.12Q103.36 39.52 104.76 39.56Q106.16 39.60 108.38 39.44Q110.60 39.28 111.68 39.28L111.68 39.28L110.56 40.40Q109.48 40.40 107.46 40.54Q105.44 40.68 104.48 40.70Q103.52 40.72 102.16 40.52ZM110.72 32.12L109.60 33.24Q109.40 33.20 109.22 33.16Q109.04 33.12 108.94 33.10Q108.84 33.08 108.80 33.06Q108.76 33.04 108.68 33.04L108.68 33.04L108.60 33.04Q108.56 33.04 108.40 33.08Q108.24 33.12 108.12 33.16L108.12 33.16L109.24 32.04Q111.08 30.84 113.24 29.88L113.24 29.88Q113.80 25.16 113.84 22.32L113.84 22.32Q113.40 18.44 113.40 15.80L113.40 15.80L114.52 14.68Q115.04 17.68 114.96 21.16L114.96 21.16L115.08 22.12L114.92 22.28Q114.84 24.84 114.28 29.40L114.28 29.40Q115.80 28.76 118 28L118 28L116.88 29.12Q115.32 29.68 114.20 30.12L114.20 30.12Q113.72 34.08 113.56 36.12L113.56 36.12Q113.56 36.40 113.48 37.18Q113.40 37.96 113.38 38.36Q113.36 38.76 113.34 39.46Q113.32 40.16 113.44 40.60Q113.56 41.04 113.74 41.58Q113.92 42.12 114.28 42.52Q114.64 42.92 115.12 43.24L115.12 43.24L114 44.36Q113.48 44.04 113.14 43.64Q112.80 43.24 112.60 42.70Q112.40 42.16 112.30 41.72Q112.20 41.28 112.20 40.58Q112.20 39.88 112.22 39.48Q112.24 39.08 112.32 38.30Q112.40 37.52 112.44 37.24L112.44 37.24Q112.60 35.24 113.16 30.52L113.16 30.52Q111.52 31.24 110.12 31.96L110.12 31.96Q110.40 32.04 110.72 32.12L110.72 32.12ZM119.08 34.96L119.08 34.96Q116.68 37.80 117.52 38.84L117.52 38.84Q118.08 37.96 120.88 34.40L120.88 34.40Q121.76 33.32 121.52 33.32L121.52 33.32Q121.20 33.36 119.08 34.96ZM117.32 40.52L117.32 40.52L116.32 41.52Q116.36 41 116.72 40.28L116.72 40.28Q115.04 39.24 118.68 35.28L118.68 35.28L119.80 34.16Q122.72 31.92 122.72 32.24L122.72 32.24Q122.72 32.40 120.64 34.96L120.64 34.96Q118.56 37.64 117.84 39.12L117.84 39.12Q118.52 39.52 119.92 39.56Q121.32 39.60 123.54 39.44Q125.76 39.28 126.84 39.28L126.84 39.28L125.72 40.40Q124.64 40.40 122.62 40.54Q120.60 40.68 119.64 40.70Q118.68 40.72 117.32 40.52ZM130.20 35L130.20 35Q129.84 37.44 129.48 38.88L129.48 38.88Q129.36 39.32 128.86 40.14Q128.36 40.96 128.24 41.40L128.24 41.40L127.12 42.52Q127.16 41.52 126.92 35.88L126.92 35.88L126.48 36.32Q126.24 34.84 125.76 33.28L125.76 33.28L126.88 32.16Q127 32.32 127.28 32.60Q127.56 32.88 127.74 33.14Q127.92 33.40 128 33.68L128 33.68Q128.12 34.16 128.24 40.36L128.24 40.36Q128.32 40.16 128.36 40L128.36 40Q128.60 39.04 128.80 37.92L128.80 37.92L129.16 35.44L129.48 33.32L130.60 32.20Q131.40 33.80 131.72 35.24L131.72 35.24Q131.84 35.72 131.96 35.80Q132.08 35.88 132.72 35.80L132.72 35.80L132.96 35.80L131.84 36.92Q131.76 36.92 131.60 36.96L131.60 36.96Q130.96 37 130.82 36.92Q130.68 36.84 130.60 36.36L130.60 36.36Q130.44 35.64 130.20 35ZM132.48 39.92L132.48 39.92Q132.44 40.08 132.22 40.46Q132 40.84 131.96 41Q131.92 41.16 131.96 41.52L131.96 41.52Q132.04 41.68 132.66 41.40Q133.28 41.12 134.34 40.44Q135.40 39.76 136.44 38.88L136.44 38.88Q136.44 37.92 136.20 37.04L136.20 37.04Q134.40 38.16 132.48 39.92ZM138.32 32.04L137.20 33.16Q137.28 32.84 137.68 32.12L137.68 32.12Q138.08 31.32 137.88 31.32L137.88 31.32Q137.80 31.32 137.60 31.44L137.60 31.44Q137.16 32.08 136.96 32.58Q136.76 33.08 136.76 33.54Q136.76 34 136.80 34.26Q136.84 34.52 137.04 35.06Q137.24 35.60 137.32 35.88L137.32 35.88Q139.08 34.80 141 34.08L141 34.08L139.88 35.20Q138.60 35.68 137.40 36.32L137.40 36.32Q137.56 37.04 137.56 37.84L137.56 37.84L136.44 38.96Q135.28 40.12 133.94 41.08Q132.60 42.04 131.76 42.44Q130.92 42.84 130.84 42.64L130.84 42.64Q130.72 42.40 130.82 42.12Q130.92 41.84 131.12 41.50Q131.32 41.16 131.40 40.96L131.40 40.96L132.52 39.84Q134.44 37.96 136.08 36.72L136.08 36.72Q136.04 36.56 135.88 36.12Q135.72 35.68 135.70 35.52Q135.68 35.36 135.62 35Q135.56 34.64 135.64 34.38Q135.72 34.12 135.86 33.72Q136 33.32 136.28 32.86Q136.56 32.40 137 31.80L137 31.80L138.12 30.68Q139.08 30.04 139.12 30.28L139.12 30.28Q139.12 30.32 138.52 31.52L138.52 31.52Q138.40 31.80 138.32 32.04L138.32 32.04ZM145.64 36.64L144.52 37.76Q142.60 39.52 140.60 40.36L140.60 40.36Q138.76 41.16 138.92 39.92L138.92 39.92Q139 39 140.20 37.08L140.20 37.08L141.32 35.96Q139 39.72 140.76 39.52L140.76 39.52Q142.12 39.36 144.76 37.40L144.76 37.40Q145.36 36.16 143.92 36.20L143.92 36.20Q143.56 36.20 142.68 36.32L142.68 36.32Q142.08 36.40 141.84 36.40L141.84 36.40L142.96 35.28Q143.08 35.28 144.20 35.12L144.20 35.12Q143.40 33.92 141.32 35.96L141.32 35.96L141.84 35.44L142.52 34.76Q142.80 34.48 143.18 34.14Q143.56 33.80 143.88 33.68Q144.20 33.56 144.52 33.52Q144.84 33.48 145.12 33.74Q145.40 34 145.56 34.52L145.56 34.52L145.04 35.04Q145.80 35.04 146 35.34Q146.20 35.64 145.64 36.64L145.64 36.64ZM150.96 37.40L150.96 37.40Q152.76 35.60 152.92 35.72L152.92 35.72Q153.00 35.92 152.96 36.46Q152.92 37 152.84 37.68L152.84 37.68L152.76 38.36Q152.80 38.92 152.90 39.20Q153.00 39.48 153.22 39.60Q153.44 39.72 153.66 39.74Q153.88 39.76 154.40 39.76Q154.92 39.76 155.36 39.84L155.36 39.84L154.24 40.96Q153.80 40.92 153.28 40.90Q152.76 40.88 152.54 40.88Q152.32 40.88 152.08 40.76Q151.84 40.64 151.76 40.34Q151.68 40.04 151.64 39.48L151.64 39.48L151.72 38.80Q151.80 38.12 151.84 37.58Q151.88 37.04 151.80 36.84L151.80 36.84Q151.68 36.76 150.96 37.40ZM146.32 35.92L147.12 34.04L148.24 32.92Q148.16 33.12 147.98 33.50Q147.80 33.88 147.68 34.20Q147.56 34.52 147.44 34.80L147.44 34.80Q147.28 35.28 146.88 36.68L146.88 36.68Q146.24 38.96 146.32 39.56L146.32 39.56Q146.60 41.68 149.96 38.40L149.96 38.40Q146.92 41.52 145.92 41.56L145.92 41.56Q145.32 41.60 145.20 40.68L145.20 40.68Q145.12 40.08 145.76 37.80L145.76 37.80Q146.12 36.40 146.32 35.92L146.32 35.92Z" fill="black"></path></svg>